<svg xmlns="http://www.w3.org/2000/svg" xml:space="preserve" id="Layer_1" x="0" y="0"
	style="enable-background:new 0 0 600 600" version="1.1" viewBox="0 0 600 600">
	<style>
	  .st1{fill:url(#SVGID_00000036955908254462700070000018262962990981533585_)}.st2{fill:url(#SVGID_00000125563952413482914040000005306421854267388571_)}.st3{fill:url(#SVGID_00000076588401471819061320000014431910229046296489_)}.st4{fill:url(#SVGID_00000060724992725574280340000004456791750385099141_)}
	</style>
	<linearGradient id="SVGID_1_" x1="248.321" x2="248.321" y1="527.987" y2="44" gradientUnits="userSpaceOnUse">
	  <stop offset="0" style="stop-color:#e8590c"/>
	  <stop offset=".5" style="stop-color:#f2012c"/>
	  <stop offset="1" style="stop-color:#fc012f"/>
	</linearGradient>
	<path d="M314 457.2c-25.5 24-49.8 46.9-75.1 70.8 2.1-35.9 4.2-70.5 6.2-105.1.5-.1 1-.2 1.6-.2 5.4 7.5 10.7 15.1 16.2 22.5 1.1 1.4 2.9 2.3 4.4 3.4 1-1.8 2.6-3.4 2.9-5.3 2.9-17.9-.8-34.4-13.7-47.2-13.8-13.7-29-26.1-43.6-38.9-21.4-18.7-43.1-37.2-52.2-65.6-12.5-39.3-6.6-75.4 18.5-108.3.5-.7 1.2-1.3 1.9-1.9 1-.9 1.9-1.8 3.5-2.6-6.5 17.7-7.5 35.8-3.8 54.6.7-1.4 1.8-2.7 2.1-4.1 5.6-26.4 22.7-44.4 43.7-59.3 18.8-13.3 38.1-25.8 56.7-39.3 20.3-14.6 38-31.9 46.6-56.1 3.4-9.5 4.1-19.9 7-30.5 1.7 9.4 4.2 18.8 5 28.4 3 33.1-7 63.1-25.4 90-11.4 16.7-25 31.9-37.8 47.6-16.7 20.4-33.8 40.6-40.4 67.1-5.1 20.4-1.3 39.3 10.1 56.4 10.4 15.5 22.3 29.9 32.9 45.3 16.5 24 16.3 45.8.5 70-1.6 2.4-2.9 4.9-4.9 8.5 12.4-.2 23.8-.2 37.1-.2z" style="fill:url(#SVGID_1_)"/>
	<linearGradient id="SVGID_00000145759012791457573380000003338542831409254809_" x1="383.943" x2="383.943" y1="432.587" y2="220.646" gradientUnits="userSpaceOnUse">
	  <stop offset="0" style="stop-color:#f7b122"/>
	  <stop offset=".5" style="stop-color:#e8590c"/>
	  <stop offset="1" style="stop-color:#ff250c"/>
	</linearGradient>
	<path d="M421.4 338.2c6.9-13.9 7.3-28.7 5.8-43.6-1.5-14.8-3.7-29.6-5.4-43.1 31 42.1 42.4 138.2-31.8 181.1 1.8-5 3.8-9.3 4.9-13.7 5.9-24.1.9-45.7-15.6-64.3-11.2-12.7-23.9-24.1-34.3-37.4-21.7-27.9-29.1-59-17.4-93.4.3-.8.9-1.5 1.9-3.1.7 5 1.2 9 1.7 13.1 2 16.7 10.4 29.7 23.5 39.6 11.1 8.4 22.4 16.6 34 24.5 14.9 10 26.5 22.4 32.7 40.3z" style="fill:url(#SVGID_00000145759012791457573380000003338542831409254809_)"/>
	<linearGradient id="SVGID_00000037675468500761429040000004913878363243055273_" x1="365.975" x2="365.975" y1="534.814" y2="331.733" gradientUnits="userSpaceOnUse">
	  <stop offset="0" style="stop-color:#f7b122"/>
	  <stop offset=".5" style="stop-color:#e8590c"/>
	  <stop offset="1" style="stop-color:#ff250c"/>
	</linearGradient>
	<path d="M357.3 352.9c11.8 10.9 18.4 24.2 16.9 40.1-1.1 11.5-4.6 22.7-7 34.1-3.8 18.4-2.3 36 8.6 52.1 6 8.9 8.8 9 15.3.6 3.3-4.2 6.6-8.4 10-12.5.6-.8 1.7-1.3 2.8-2.2-2.2 30.2-4.4 59.9-6.6 90.9-23.3-18.7-45.5-36.5-69.2-55.5 7.9-1.1 13.5-1.8 19.2-2.7 3.9-.6 5.9-2.6 3.3-6.4-16.6-23.6-12.3-47.1-.3-70.9 4.3-8.5 8.1-17.4 11.3-26.4 4.4-12.5 2.8-24.7-3.3-36.4-.6-1.2-1.2-2.4-1.7-3.6-.3-.2 0-.4.7-1.2z" style="fill:url(#SVGID_00000037675468500761429040000004913878363243055273_)"/>
	<linearGradient id="SVGID_00000080207726922190568820000003104694640807193238_" x1="374.639" x2="374.639" y1="271.86" y2="65.881" gradientUnits="userSpaceOnUse">
	  <stop offset="0" style="stop-color:#a80501"/>
	  <stop offset=".5" style="stop-color:#d8027f"/>
	  <stop offset="1" style="stop-color:#ea01d8"/>
	</linearGradient>
	<path d="M378.9 65.9c19.1 28.2 29.6 56.6 20 89.1-4.6 15.4-10.4 30.4-15.5 45.7-7.9 23.4-9 46.8.5 71.2-10.8-4.3-18.9-11.2-25.4-19.8-13.5-18-14.5-38.2-7.5-58.6 5.6-16.5 12.7-32.4 19.3-48.5 6.3-15.4 11.3-31.3 11.9-47.9.4-9.8-1.9-19.6-3.3-31.2z" style="fill:url(#SVGID_00000080207726922190568820000003104694640807193238_)"/>
	<linearGradient id="SVGID_00000022554428244853577450000013034863614692739260_" x1="291.732" x2="291.732" y1="438.149" y2="191.882" gradientUnits="userSpaceOnUse">
	  <stop offset="0" style="stop-color:#a80501"/>
	  <stop offset=".5" style="stop-color:#d8027f"/>
	  <stop offset="1" style="stop-color:#ea01d8"/>
	</linearGradient>
	<path d="M304.3 316.1c-13.4-10-19.7-22.6-22.2-37.5l-1.8.3c-.5 1.5-1.1 3-1.4 4.6-4.3 22.8 4.3 41.9 16.9 60.2 8.1 11.7 16.5 23.4 22.4 36.1 8.7 18.5 6.8 37-5.5 53.9-1.3 1.8-2.8 3.4-3.7 4.4 1.2-8.2 3.1-16.8 3.5-25.4.8-18.1-8.4-32.4-19.1-46.1-7.8-10-15.7-20-22.7-30.5-12.3-18.6-12.9-39.3-8.2-60.2 5.2-23.3 17.5-43.2 32.9-61.2 6.8-7.9 14.1-15.5 21.9-22.9-17 39.8-23.2 80.5-13 124.3z" style="fill:url(#SVGID_00000022554428244853577450000013034863614692739260_)"/>
  </svg>
  